<?xml version="1.0" encoding="utf-8"?>
<!-- Generator: Adobe Illustrator 17.1.0, SVG Export Plug-In . SVG Version: 6.00 Build 0)  -->
<!DOCTYPE svg PUBLIC "-//W3C//DTD SVG 1.1//EN" "http://www.w3.org/Graphics/SVG/1.1/DTD/svg11.dtd">
<svg version="1.1" id="Layer_1" xmlns="http://www.w3.org/2000/svg" xmlns:xlink="http://www.w3.org/1999/xlink" x="0px" y="0px"
	 viewBox="0 0 60 29" enable-background="new 0 0 60 29" xml:space="preserve">
<g>
	<path fill="#E2E4E5" d="M9.9,4.3l0-0.5L9.9,4.3c-0.8,0-1.4,0.6-1.4,1.3l0,17.7c0,0.4,0.1,0.7,0.4,1c0.2,0.3,0.6,0.4,0.9,0.4
		c0,0,0,0,0,0c0.4,0,0.7-0.1,0.9-0.4c0.3-0.2,0.4-0.6,0.4-0.9V5.7C11.2,4.9,10.6,4.3,9.9,4.3z"/>
	<path fill="#E2E4E5" d="M50.2,4.3l0-0.5L50.2,4.3c-0.4,0-0.7,0.1-1,0.4s-0.4,0.6-0.4,0.9v17.7c0,0.7,0.6,1.3,1.3,1.4c0,0,0,0,0,0
		c0.7,0,1.3-0.6,1.3-1.3V5.7C51.6,4.9,51,4.3,50.2,4.3z"/>
	<path fill="#E2E4E5" d="M4.4,9.2l0-0.5L4.4,9.2c-0.8,0-1.4,0.6-1.4,1.3l0,7.9c0,0.4,0.1,0.7,0.4,1c0.2,0.3,0.6,0.4,0.9,0.4
		c0.4,0,0.7-0.1,0.9-0.4c0.3-0.2,0.4-0.6,0.4-0.9v-8c0-0.4-0.1-0.7-0.4-1C5.1,9.3,4.8,9.2,4.4,9.2z"/>
	<path fill="#E2E4E5" d="M44.7,0H15.4c-0.1,0-0.1,0-0.2,0c-0.7,0.1-1.2,0.6-1.2,1.3v26.3c0,0.7,0.6,1.3,1.3,1.3h29.3
		c0.7,0,1.3-0.6,1.3-1.3V1.4C46.1,0.6,45.5,0,44.7,0z M43.4,26.3H16.7V2.7h26.7V26.3z"/>
	<path fill="#E2E4E5" d="M55.7,9.2l0-0.5L55.7,9.2c-0.1,0-0.1,0-0.2,0c-0.7,0.1-1.2,0.7-1.2,1.4v7.9c0,0.4,0.1,0.7,0.4,1
		c0.2,0.3,0.6,0.4,0.9,0.4c0.7,0,1.3-0.6,1.4-1.3v-8C57.1,9.8,56.5,9.2,55.7,9.2z"/>
</g>
</svg>
