<?xml version="1.0" encoding="utf-8"?>
<svg version="1.1" id="Layer_1" xmlns="http://www.w3.org/2000/svg" xmlns:xlink="http://www.w3.org/1999/xlink" x="0px" y="0px" viewBox="0 0 527.7 145.3" enable-background="new 0 0 527.7 145.3" xml:space="preserve">
<g>
	<g>
		<path fill="#BD8669" d="M39,81.3L29,53.8L25.2,54l-11,27.8c-2.1,5.3-3.8,9.2-5.1,11.9h3.3c1.1-3.4,2.5-7.2,4.2-11.5l2.6-6.7&#xA;			l0.8-2.2L25.9,58l5.4,15.4l0.8,2.2l2,5.7c2.1,6,3.3,10.1,3.9,12.5H44C43.1,91.9,41.4,87.7,39,81.3" />
		<path fill="#BD8669" d="M301.2,81.3c0,2.5,0,5,0.1,7.4c0.1,2.4,0.1,4.1,0.2,5.1h-5.5c0.1-0.5,0.2-2.1,0.3-4.6&#xA;			c0.1-2.6,0.1-5.2,0.1-7.8v-23c-2,3.1-4.9,7.4-8.6,13c-3.7,5.6-6.5,9.9-8.4,12.7c-4.3,6.3-6.4,9.6-6.4,9.7H268&#xA;			c0.3-3.6,0.4-7.8,0.4-12.5V66.4c0-2.5,0-5-0.1-7.4c-0.1-2.4-0.2-4.1-0.2-5.1h5.4c-0.1,0.5-0.2,2.1-0.3,4.6&#xA;			c-0.1,2.6-0.1,5.2-0.1,7.8v23l10.8-16c4.4-6.9,7.3-11.3,8.6-13.1c2.7-4.2,4-6.3,4-6.3h5.1c-0.1,0.5-0.2,2.1-0.3,4.6&#xA;			c-0.1,2.6-0.1,5.2-0.1,7.9V81.3z" />
		<path fill="#BD8669" d="M250,66.5c0-2.5,0-5-0.1-7.4c-0.1-2.4-0.1-4.1-0.2-5.1h5.4c0,1-0.1,2.7-0.2,5.1c-0.1,2.4-0.1,4.9-0.1,7.4&#xA;			v14.9c0,2.5,0,5,0.1,7.4c0.1,2.4,0.1,4.1,0.2,5.1h-53.5c0-1,0.1-2.7,0.2-5.1c0.1-2.4,0.1-4.9,0.1-7.4V66.5c0-2.5,0-5-0.1-7.4&#xA;			c-0.1-2.4-0.2-4.1-0.2-5.1h5.3c0,1-0.1,2.7-0.2,5.1c-0.1,2.4-0.1,4.9-0.1,7.4v14.9c0,2.2,0.1,5.5,0.2,9.9c2,0.2,5.3,0.3,9.9,0.3&#xA;			h1.3c3.2,0,5.9-0.1,8.1-0.3c0.1-2.9,0.1-6.2,0.1-9.9V66.5c0-2.9,0-5.4-0.1-7.6c-0.1-2.2-0.1-3.8-0.2-4.9h4.6c0,1-0.1,2.7-0.2,5.1&#xA;			c-0.1,2.4-0.1,4.9-0.1,7.4v14.9c0,4.3,0.1,7.6,0.2,9.9c2.9,0.2,6.2,0.3,9.8,0.3c4.1,0,7.3-0.1,9.6-0.3c0-1.5,0-2.6,0.1-3.6&#xA;			l0.1-6.3V66.5z" />
		<path fill="#BD8669" d="M347.7,81.3c0,4.7,0.1,8.9,0.4,12.5h-5.3c0-2.3,0-4.1,0.1-5.5l0.1-6.3v-8h-1.8c-3.2-0.1-6.6-0.1-9.9-0.1&#xA;			c-3.9,0-7.3,0-10.2,0.1h-1.5v7.4c0,3,0.1,7.2,0.4,12.4h-5.4c0-0.4,0-1.4,0.1-3c0.1-5.5,0.2-8.7,0.2-9.5V66.5&#xA;			c0-2.9-0.1-7.1-0.4-12.5h5.3c-0.1,5.9-0.2,9.9-0.2,11.9v5.7h1.7c2.9,0.1,6.2,0.1,9.9,0.1l11.7-0.1v-5.3c0-4.8-0.1-8.9-0.4-12.4&#xA;			h5.5c-0.2,4.4-0.3,8.5-0.3,12.4V81.3z" />
		<path fill="#BD8669" d="M389.3,92.8c-0.9,0.5-2.1,0.9-3.8,1.3c-1.7,0.4-3.6,0.5-5.7,0.5c-4.1,0-8.4-0.9-11.6-2.6&#xA;			c-3.2-1.7-5.6-4.2-7.4-7.3c-1.8-3.2-2.7-6.8-2.7-11c0-4.4,1-8.2,2.9-11.3c1.9-3.1,4.5-5.4,7.8-7c3.2-1.5,7.6-2.3,11.5-2.3&#xA;			c1.9,0,3.7,0.2,5.4,0.5c1.7,0.3,3,0.7,3.9,1.2l-0.7,3c-0.8-0.6-2-1.2-3.5-1.7c-1.5-0.5-3.1-0.8-4.7-0.8c-2.7,0-5.4,0.6-8.1,1.9&#xA;			c-2.7,1.2-4.9,3.2-6.6,6c-1.8,2.8-2.7,6.3-2.7,10.6c0,3.4,0.7,6.6,2.1,9.4c1.4,2.9,3.3,5.1,5.9,6.8c2.5,1.7,5.5,2.5,8.9,2.5&#xA;			c1.8,0,3.4-0.3,5-0.8c1.6-0.5,2.8-1.1,3.6-1.7L389.3,92.8z" />
		<path fill="#BD8669" d="M473.8,81.3c0,2.5,0,5,0.1,7.4c0.1,2.4,0.1,4.1,0.2,5.1h-5.5c0.1-0.5,0.2-2.1,0.3-4.6&#xA;			c0.1-2.6,0.1-5.2,0.1-7.8v-23c-2,3.1-4.9,7.4-8.6,13c-3.7,5.6-6.5,9.9-8.4,12.7c-4.3,6.3-6.4,9.6-6.4,9.7h-5.1&#xA;			c0.3-3.6,0.4-7.8,0.4-12.5V66.4c0-2.5,0-5-0.1-7.4c-0.1-2.4-0.2-4.1-0.2-5.1h5.4c-0.1,0.5-0.2,2.1-0.3,4.6&#xA;			c-0.1,2.6-0.1,5.2-0.1,7.8v23l10.8-16c4.4-6.9,7.3-11.3,8.6-13.1c2.7-4.2,4-6.3,4-6.3h5.1c-0.1,0.5-0.2,2.1-0.3,4.6&#xA;			c-0.1,2.6-0.1,5.2-0.1,7.9V81.3z" />
		<path fill="#BD8669" d="M520.2,81.3c0,2.5,0,5,0.1,7.4c0.1,2.4,0.1,4.1,0.2,5.1h-5.5c0.1-0.5,0.2-2.1,0.3-4.6&#xA;			c0.1-2.6,0.1-5.2,0.1-7.8v-23c-2,3.1-4.9,7.4-8.6,13c-3.7,5.6-6.5,9.9-8.4,12.7c-4.3,6.3-6.4,9.6-6.4,9.7H487&#xA;			c0.3-3.6,0.4-7.8,0.4-12.5V66.4c0-2.5,0-5-0.1-7.4c-0.1-2.4-0.2-4.1-0.2-5.1h5.4c-0.1,0.5-0.2,2.1-0.3,4.6&#xA;			c-0.1,2.6-0.1,5.2-0.1,7.8v23l10.8-16c4.4-6.9,7.3-11.3,8.6-13.1c2.7-4.2,4-6.3,4-6.3h5.1c-0.1,0.5-0.2,2.1-0.3,4.6&#xA;			c-0.1,2.6-0.1,5.2-0.1,7.9V81.3z" />
		<path fill="#BD8669" d="M108.8,69.4c5-1,7.5-3.8,7.5-8.1c0-4-2.4-6.5-7.1-7.4c-1-0.2-2.2-0.3-3.7-0.3c-0.8,0-2.1,0.1-3.7,0.1&#xA;			c-1.6,0.1-3.6,0.1-4.5,0.1h-2.8c0.3,4.6,0.4,8.3,0.4,11.2v16.3c0,2.8-0.1,6.2-0.3,9.3c-0.1,1.6-0.1,2.6-0.1,3.1h3.5&#xA;			c1,0,3,0.1,4.8,0.1c1.8,0.1,2.9,0.1,3.4,0.1c4.5,0,8.1-1.3,10.8-4c2.7-2.7,4-5.7,4-9C121.1,74.1,116.2,70,108.8,69.4z M105.2,55.8&#xA;			c4.8,0.2,7.2,2.1,7.2,5.8c0,2.7-1,5.1-5,7c-1.4,0.6-3.6,1.3-5.1,2c-1,0.5-2.2,1.2-2.6,1.8c0-4.8,0-10.3,0-16.5&#xA;			C101,55.9,103.9,55.8,105.2,55.8z M113.7,88.7c-2.1,2.1-4.7,3.2-7.6,3.2l-6.3-0.2c0-3.3-0.1-9.3-0.1-18.2c1.8-1.2,4.3-2.1,8.3-2.1&#xA;			c2.1,0,3.9,0.8,5,1.5c2.1,1.3,4,4.2,4,8C116.9,84,115.8,86.5,113.7,88.7z" />
		<path fill="#BD8669" d="M189.8,54c0,0.3-0.4,1.3-1.1,3.1c-0.7,1.8-1.4,3.7-2.2,5.7l-8,18.9l-5-12.7c-1.1-2.8-2.3-6-3.5-9.6&#xA;			c-1.2-3.6-1.8-5.4-1.8-5.5h-6.4c0.3,0.4,0.9,1.6,1.8,3.7c1,2.1,1.9,4.3,2.9,6.8l8.7,21.8c0,0.9-0.3,1.8-0.8,2.8&#xA;			c-0.5,1-1,1.8-1.7,2.4c-0.7,0.6-1.3,1-1.9,1c-0.5,0-1-0.1-1.4-0.3l-0.6,2.2c0.7,0.2,1.4,0.2,1.9,0.2c1.6,0,3-0.6,4.2-1.7&#xA;			s2.3-3,3.5-5.5l10.1-22.9c1.4-3.1,3-6.6,4.9-10.3H189.8z" />
		<path fill="#BD8669" d="M80.3,81.3l-10-27.5L66.4,54l-11,27.8c-2.1,5.3-3.8,9.2-5.1,11.9h3.3c0.4-1.3,0.9-2.6,1.4-4&#xA;			c0.9-2.5,3.4-4.4,9.5-5.5c6.5-1.3,7-5.2,7-6.5c0-1.2-0.1-1.6-0.1-1.6l-0.3-0.1c-0.5,2-1,4.1-7.6,5.3c-3.2,0.6-5.3,2.1-6.8,3.7&#xA;			c0.4-1,0.7-1.9,1.1-2.9l2.6-6.7l0.8-2.2L67.1,58l5.4,15.4l0.8,2.2l2,5.7c2.1,6,3.3,10.1,3.9,12.5h6.1&#xA;			C84.3,91.9,82.6,87.7,80.3,81.3z" />
		<path fill="#BD8669" d="M429.6,92.3c-0.6-0.3-1.2-0.9-1.9-1.9c-0.7-0.9-1.3-2.3-2-4.2c-0.2-0.4-0.5-1.2-1-2.3&#xA;			c-1.1-2.6-2.1-4.8-3.1-6.6c-1-1.8-2.4-3.5-4.3-5.1c-1.8-1.6-4.1-2.7-6.8-3.1c0,0-0.4-0.1-0.7-0.1l7.6-9c2.4-2.9,4.1-4.9,5.3-6&#xA;			h-4.4c-0.1,0.2-0.9,1.2-2.2,3.2c-1.4,1.9-2.6,3.6-3.8,5l-5.3,6.5l0,0l-2.2,2.8V54h-5.1c0.3,5.4,0.4,9.6,0.4,12.5v14.9&#xA;			c0,0.8-0.1,4-0.2,9.5c-0.1,1.5-0.1,2.5-0.1,3h5.4c-0.3-5.3-0.4-9.4-0.4-12.4v-6l3.7-4.6c0.5,0.1,1,0.3,1.4,0.4&#xA;			c0.8,0.3,1.5,0.6,2.1,1c1,0.7,2.1,1.8,3.2,3.3c1.1,1.5,2.1,3.4,3.1,5.6c0.3,0.8,0.6,1.3,0.7,1.7c1.3,3.1,2.4,5.4,3.4,7&#xA;			c0.9,1.6,2,2.8,3.4,3.5c1.1,0.4,2.1,0.6,3.1,0.6h0.1c1,0,2.5-0.2,2.9-0.4l0.1-0.4C431,92.9,430.2,92.6,429.6,92.3z" />
		<path fill="#BD8669" d="M155.2,60.5c-1.2-2-2.9-3.7-5.1-4.9c-2.2-1.3-4.9-1.9-7.9-1.9c-0.4,0-1.4,0-3,0.1&#xA;			c-1.9,0.1-3.4,0.1-4.5,0.1h-4.2c0,0.4,0,1.4,0.1,2.9c0.1,5.5,0.2,8.7,0.2,9.5v16.3c0,2.8-0.1,6.5-0.4,11.2h2.8c0.5,0,1.7,0,2.4,0&#xA;			c0-0.7,0-2,0-2c0-2.4,0-4.8,0-7c0-1.3,2.5-3.2,5.8-4.1c6.1-1.7,9.9-3.6,12.1-5.7c2.3-2.1,3.5-5,3.5-8.4&#xA;			C157,64.6,156.4,62.5,155.2,60.5z M147.3,76.2c-3.3,1.8-10.5,3.3-11.8,6.1c0-13.3,0.1-22.1,0.1-26.3l6.3-0.2&#xA;			c1.9,0,3.7,0.5,5.3,1.5c1.7,1,3,2.3,4,4c1,1.7,1.5,3.8,1.5,5.8C152.8,71.3,150.5,74.4,147.3,76.2z" />
	</g>
	<g>
		<path fill="#BD8669" d="M355.5,41c0,0,64.4-29.3,108.9-29.3S503.7,41,503.7,41s-2.5-23-39.3-23S355.5,41,355.5,41" />
		<path fill="#BD8669" d="M196.4,110.6c0,0-68.9,27.1-108.9,27.1c-41.1,0-39.3-27.1-39.3-27.1s2.5,23,39.3,23&#xA;			S196.4,110.6,196.4,110.6" />
	</g>
	<g>
		<path fill="#BD8669" d="M179.4,18.6h0.7v3.2h-1.3v-2h-3.9v2h-1.3v-3.2h0c0.3,0,0.6-0.1,0.7-0.3c0.1-0.2,0.2-0.7,0.2-1.3V8.2h4.9&#xA;			V18.6z M175.8,16.4c0,1-0.1,1.7-0.4,2.1h2.7V9.4h-2.3V16.4z" />
		<path fill="#BD8669" d="M187.6,19.7c-0.3,0.2-0.7,0.3-1.1,0.3c-0.4,0-0.8-0.1-1.1-0.3c-0.3-0.2-0.6-0.5-0.8-0.9&#xA;			c-0.2-0.4-0.4-1-0.5-1.8c-0.1-0.8-0.2-1.8-0.2-2.9c0-1.5,0.1-2.7,0.4-3.7c0.2-0.9,0.5-1.5,0.9-1.8c0.4-0.3,0.8-0.5,1.4-0.5&#xA;			s1,0.2,1.4,0.5c0.4,0.3,0.7,0.9,0.9,1.8c0.2,0.9,0.4,2.1,0.4,3.7c0,1.2-0.1,2.1-0.2,2.9c-0.1,0.8-0.3,1.4-0.6,1.8&#xA;			C188.2,19.2,187.9,19.5,187.6,19.7 M185.9,18.3c0.2,0.2,0.4,0.4,0.7,0.4c0.3,0,0.5-0.1,0.7-0.4c0.2-0.2,0.3-0.7,0.4-1.4&#xA;			c0.1-0.7,0.2-1.7,0.1-2.8c0-1.8-0.1-3-0.3-3.7c-0.2-0.7-0.5-1-0.9-1c-0.4,0-0.7,0.3-0.9,1c-0.2,0.7-0.3,1.9-0.3,3.7&#xA;			c0,1.2,0.1,2.1,0.2,2.8C185.6,17.6,185.7,18,185.9,18.3" />
		<path fill="#BD8669" d="M212.5,19.9c-1.6,0-2.4-2-2.4-5.9c0-4,0.9-6,2.6-6c0.6,0,1,0.2,1.4,0.7c0.3,0.4,0.6,1.2,0.6,2.4l-1.2,0.2&#xA;			c-0.1-1.3-0.4-1.9-0.9-1.9c-0.4,0-0.7,0.4-0.9,1.1c-0.2,0.7-0.3,1.9-0.3,3.7c0,3.1,0.4,4.6,1.2,4.6c0.3,0,0.5-0.2,0.7-0.7&#xA;			c0.2-0.5,0.3-1,0.4-1.7l1.2,0.1c0,1.3-0.3,2.2-0.7,2.7C213.6,19.7,213.1,19.9,212.5,19.9" />
		<path fill="#BD8669" d="M227.4,13.9c1.2,0.2,1.7,1.1,1.7,2.7c0,1-0.3,1.8-0.8,2.4c-0.5,0.5-1.3,0.8-2.3,0.8h-1.7V8.2h1.7&#xA;			c1,0,1.7,0.2,2.1,0.7c0.4,0.5,0.6,1.2,0.6,2.1C228.8,12.5,228.4,13.4,227.4,13.9 M227.2,12.8c0.3-0.4,0.4-0.9,0.4-1.6&#xA;			c0-0.6-0.1-1.1-0.4-1.4c-0.2-0.3-0.7-0.4-1.2-0.4h-0.3v4h0.4C226.6,13.4,227,13.2,227.2,12.8 M226,18.6c0.6,0,1.1-0.2,1.4-0.6&#xA;			c0.3-0.4,0.4-0.9,0.4-1.5c0-0.7-0.1-1.2-0.4-1.6c-0.3-0.3-0.8-0.5-1.4-0.5h-0.4v4.1H226z" />
		<path fill="#BD8669" d="M237.7,8.2h0.8v11.6h-1.2v-5.3c0-0.6,0-1.3,0-2.3l-3,7.6h-0.8V8.2h1.2v6v1.5L237.7,8.2z" />
		<path fill="#BD8669" d="M248.5,18.6h0.7v3.2h-1.3v-2H244v2h-1.3v-3.2h0c0.3,0,0.6-0.1,0.7-0.3c0.1-0.2,0.2-0.7,0.2-1.3V8.2h4.9&#xA;			V18.6z M244.9,16.4c0,1-0.1,1.7-0.4,2.1h2.7V9.4h-2.3V16.4z" />
		<path fill="#BD8669" d="M256.8,19.7c-0.3,0.2-0.7,0.3-1.1,0.3c-0.4,0-0.8-0.1-1.1-0.3c-0.3-0.2-0.6-0.5-0.8-0.9&#xA;			c-0.2-0.4-0.4-1-0.5-1.8c-0.1-0.8-0.2-1.8-0.2-2.9c0-1.5,0.1-2.7,0.4-3.7c0.2-0.9,0.5-1.5,0.9-1.8c0.4-0.3,0.8-0.5,1.4-0.5&#xA;			c0.5,0,1,0.2,1.4,0.5c0.4,0.3,0.7,0.9,0.9,1.8c0.2,0.9,0.4,2.1,0.4,3.7c0,1.2-0.1,2.1-0.2,2.9c-0.1,0.8-0.3,1.4-0.6,1.8&#xA;			C257.3,19.2,257.1,19.5,256.8,19.7 M255,18.3c0.2,0.2,0.4,0.4,0.7,0.4c0.3,0,0.5-0.1,0.7-0.4c0.2-0.2,0.3-0.7,0.4-1.4&#xA;			c0.1-0.7,0.2-1.7,0.1-2.8c0-1.8-0.1-3-0.3-3.7c-0.2-0.7-0.5-1-0.9-1c-0.4,0-0.7,0.3-0.9,1c-0.2,0.7-0.3,1.9-0.3,3.7&#xA;			c0,1.2,0.1,2.1,0.2,2.8C254.7,17.6,254.8,18,255,18.3" />
		<polygon fill="#BD8669" points="283.2,8.2 284.5,8.2 284.5,19.8 283.2,19.8 283.2,14.6 280.8,14.6 280.8,19.8 279.5,19.8 &#xA;			279.5,8.2 280.8,8.2 280.8,13.4 283.2,13.4 		" />
		<path fill="#BD8669" d="M293,19.8l-0.6-2.7h-2l-0.5,2.7h-1.3l2.8-11.6h0.1l2.9,11.6H293z M290.6,16.1h1.7l-0.8-4L290.6,16.1z" />
		<polygon fill="#BD8669" points="308.9,19.8 307.4,19.8 305.1,14.3 305.1,19.8 303.8,19.8 303.8,8.2 305.1,8.2 305.1,13.6 &#xA;			307.4,8.2 308.8,8.2 306.2,13.8 		" />
		<path fill="#BD8669" d="M314.8,8.2c2,0,3,1.1,3,3.2c0,1.1-0.3,2-0.8,2.6c-0.5,0.6-1.3,0.9-2.3,0.9h-0.2v4.9h-1.3V8.2H314.8z&#xA;			 M314.5,13.8c0.7,0,1.2-0.2,1.5-0.6c0.3-0.4,0.4-1,0.4-1.7c0-1.4-0.6-2.1-1.7-2.1h-0.5v4.3H314.5z" />
		<polygon fill="#BD8669" points="325.7,9.4 323.3,9.4 323.3,13.3 325.4,13.3 325.4,14.6 323.3,14.6 323.3,18.5 325.7,18.5 &#xA;			325.7,19.8 322,19.8 322,8.2 325.7,8.2 		" />
		<path fill="#BD8669" d="M345.2,19.8V9.4h-2.3V18c0,0.7-0.2,1.3-0.5,1.6c-0.3,0.3-0.9,0.4-1.7,0.2l0.1-1.2c0.3,0.1,0.5,0.1,0.6,0&#xA;			c0.2-0.1,0.2-0.3,0.2-0.6V8.2h4.9v11.6H345.2z" />
		<path fill="#BD8669" d="M353,12.9c2.1,0,3.2,1.1,3.2,3.4c0,2.3-1.1,3.5-3.2,3.5h-1.6V8.2h1.3v4.7H353z M352.9,18.6&#xA;			c1.2,0,1.9-0.8,1.9-2.3c0-1.5-0.6-2.2-1.9-2.2h-0.3v4.5H352.9z" />
		<path fill="#BD8669" d="M333.3,13c-0.9-4.3-3.2-5-3.2-5v11.8h1.2v-5.4c0-1.6-0.1-4.1-0.1-4.1l0,0c0.9,1.2,1.6,2.8,1.7,6.1h0.9&#xA;			c0.1-3.3,0.8-4.9,1.7-6.1l0,0c0,0-0.1,2.5-0.1,4.1v5.4h1.2V8C336.5,8,334.2,8.7,333.3,13z" />
		<path fill="#BD8669" d="M266.1,13c-0.9-4.3-3.2-5-3.2-5v11.8h1.2v-5.4c0-1.6-0.1-4.1-0.1-4.1l0,0c0.9,1.2,1.6,2.8,1.7,6.1h0.9&#xA;			c0.1-3.3,0.8-4.9,1.7-6.1l0,0c0,0-0.1,2.5-0.1,4.1v5.4h1.2V8C269.3,8,267.1,8.7,266.1,13z" />
		<path fill="#BD8669" d="M197,13c-0.9-4.3-3.2-5-3.2-5v11.8h1.2v-5.4c0-1.6-0.1-4.1-0.1-4.1l0,0c0.9,1.2,1.6,2.8,1.7,6.1h0.8&#xA;			c0.1-3.3,0.8-4.9,1.7-6.1l0,0c0,0-0.1,2.5-0.1,4.1v5.4h1.2V8C200.2,8,197.9,8.7,197,13z" />
	</g>
</g>
</svg>