<svg width="30" height="30" viewBox="0 0 30 30" fill="none" xmlns="http://www.w3.org/2000/svg">
<path d="M25.9519 25.2466C25.9444 25.2541 25.9444 25.2541 25.9519 25.2466C25.9444 25.2541 25.9444 25.2541 25.9519 25.2466C25.9519 25.2541 25.9519 25.2541 25.9519 25.2466Z" fill="#BF9474"/>
<path d="M23.683 18.5842C23.5292 18.4241 23.3691 18.2832 23.2025 18.1614C23.0359 18.0397 22.8566 17.9372 22.6772 17.8539C22.4978 17.7707 22.312 17.7066 22.1199 17.6682C21.9277 17.6233 21.7355 17.6041 21.5433 17.6041C21.3511 17.6041 21.1589 17.6233 20.9667 17.6682C20.7746 17.7066 20.5888 17.7707 20.4094 17.8539C20.23 17.9372 20.0507 18.0397 19.8777 18.1614C19.7047 18.2832 19.5382 18.4241 19.378 18.5842L18.8783 19.0839L18.3787 19.5836L17.879 20.0833L17.3793 20.583C17.3409 20.5637 17.296 20.5381 17.2576 20.5189C17.2191 20.4997 17.1743 20.4741 17.1359 20.4548C17.0974 20.4356 17.0526 20.41 17.0142 20.3908C16.9757 20.3716 16.9309 20.3523 16.8924 20.3267C16.8348 20.3011 16.7771 20.2691 16.7259 20.2434C16.6682 20.2178 16.617 20.1858 16.5657 20.1602C16.5145 20.1345 16.4632 20.1025 16.412 20.0769C16.3607 20.0513 16.3159 20.0192 16.271 19.9936C15.8034 19.6989 15.3421 19.3786 14.8937 19.0327C14.4453 18.6867 14.0033 18.3216 13.574 17.9244C13.1448 17.5336 12.7156 17.1108 12.2992 16.6624C11.8828 16.214 11.4664 15.7399 11.0564 15.2402C10.8578 14.9904 10.6785 14.747 10.5119 14.5163C10.3454 14.2857 10.1916 14.0551 10.0507 13.8373C9.90973 13.6131 9.78161 13.4017 9.6663 13.1839C9.55099 12.9661 9.44208 12.7546 9.34599 12.5432C9.47411 12.4215 9.60224 12.3062 9.73036 12.1845C9.85848 12.0628 9.9802 11.9411 10.1019 11.8193C10.2236 11.6976 10.3454 11.5759 10.4607 11.4542C10.5824 11.3325 10.6977 11.2108 10.813 11.0955C10.8578 11.0506 10.9027 11.0058 10.9475 10.9609C10.9924 10.9161 11.0372 10.8712 11.0821 10.8264C11.1269 10.7816 11.1717 10.7367 11.2166 10.6919C11.2614 10.647 11.3063 10.6022 11.3511 10.5573C11.6842 10.2242 11.9341 9.86547 12.1006 9.50032C12.2672 9.12877 12.3505 8.7508 12.3505 8.36643C12.3505 7.98207 12.2672 7.6041 12.1006 7.23255C11.9341 6.86099 11.6842 6.50865 11.3511 6.17553L10.9219 5.74632L10.4927 5.31711L10.0635 4.88789L9.63427 4.45868C9.58302 4.40743 9.53818 4.36259 9.48693 4.31134C9.43568 4.26009 9.39083 4.20884 9.33959 4.164C9.28834 4.11275 9.24349 4.0615 9.19224 4.01025C9.141 3.959 9.09615 3.90775 9.0449 3.8565C8.94881 3.76041 8.85272 3.65791 8.75663 3.56182C8.66053 3.46573 8.55804 3.36323 8.46194 3.26714C8.35944 3.17105 8.26335 3.06855 8.16085 2.97246C8.05836 2.87636 7.95586 2.78027 7.85336 2.68418C7.69961 2.53043 7.53946 2.3959 7.3729 2.28059C7.20634 2.16528 7.03337 2.06919 6.854 1.99231C6.67463 1.91544 6.49525 1.85779 6.30307 1.81294C6.11729 1.77451 5.92511 1.75529 5.73292 1.75529C5.54074 1.75529 5.34855 1.77451 5.16278 1.81294C4.977 1.85138 4.79122 1.90903 4.60544 1.99231C4.42607 2.06919 4.2467 2.16528 4.07373 2.28059C3.90076 2.3959 3.7342 2.53043 3.58046 2.68418L3.04234 3.2287L2.50422 3.77322L1.96611 4.31775L1.42799 4.86227C1.22299 5.06727 1.04362 5.27867 0.883467 5.50288C0.723314 5.7271 0.588784 5.96413 0.473474 6.20756C0.358163 6.45099 0.268477 6.70724 0.198009 6.9763C0.127542 7.24536 0.0826985 7.52082 0.0570739 7.80269C0.018637 8.26394 0.0250431 8.71877 0.06348 9.1608C0.101917 9.60282 0.165978 10.0256 0.249258 10.4228C0.332538 10.8264 0.435037 11.2044 0.543941 11.5503C0.652846 11.8962 0.76175 12.2165 0.870655 12.4984C1.1269 13.1903 1.41518 13.8693 1.73549 14.542C2.0622 15.2146 2.42094 15.8808 2.81812 16.5471C3.21531 17.2133 3.65733 17.8796 4.13779 18.5458C4.61825 19.212 5.14356 19.8911 5.7137 20.5766C6.40557 21.403 7.13587 22.1909 7.8982 22.9276C8.66053 23.6643 9.4549 24.3626 10.2877 25.0096C11.1141 25.6566 11.9789 26.2588 12.8694 26.8161C13.7598 27.3735 14.6823 27.8796 15.6368 28.3408C16.002 28.5138 16.3928 28.6931 16.8156 28.8725C17.2384 29.0455 17.6868 29.2185 18.1544 29.3722C18.6221 29.5259 19.1154 29.6605 19.6279 29.7694C20.1404 29.8783 20.6657 29.9552 21.2102 29.9872C21.2422 29.9872 21.2742 29.9936 21.3127 29.9936C21.3447 29.9936 21.3831 29.9936 21.4152 30C21.4472 30 21.4792 30 21.5177 30C21.5497 30 21.5817 30 21.6138 30C21.9789 30 22.3313 29.968 22.6644 29.9039C22.9975 29.8398 23.3178 29.7374 23.6253 29.6092C23.9328 29.4811 24.2211 29.3145 24.4901 29.116C24.7656 28.9174 25.0218 28.6931 25.2589 28.4305L25.2653 28.4241L25.2717 28.4177L25.2781 28.4113L25.2845 28.4049C25.3678 28.3024 25.4511 28.2063 25.5407 28.1102C25.6304 28.0141 25.7201 27.918 25.8098 27.8283C25.9059 27.7322 25.9956 27.6425 26.0917 27.5464C26.1878 27.4504 26.2903 27.3543 26.3864 27.2582C26.4568 27.1941 26.5209 27.13 26.5913 27.0596C26.6618 26.9955 26.7259 26.9251 26.7963 26.861C26.8668 26.7905 26.9309 26.7265 27.0013 26.656C27.0718 26.5855 27.1359 26.5151 27.2063 26.4446C27.3601 26.2844 27.501 26.1115 27.6227 25.9385C27.7445 25.7655 27.8405 25.5862 27.9238 25.4004C28.0071 25.2146 28.0648 25.0288 28.1032 24.8366C28.1416 24.6445 28.1673 24.4523 28.1673 24.2601C28.1673 24.0615 28.148 23.8693 28.1032 23.6771C28.0648 23.4849 28.0007 23.2992 27.9174 23.1134C27.8341 22.9276 27.7316 22.7546 27.6099 22.5817C27.4882 22.4087 27.3473 22.2422 27.1871 22.0884L26.3159 21.2172L25.4446 20.3459L24.5734 19.4747L23.683 18.5842ZM25.9507 25.2466C25.8867 25.3107 25.829 25.3812 25.765 25.4452C25.7009 25.5093 25.6368 25.5734 25.5728 25.6374C25.5087 25.7015 25.4446 25.7655 25.3806 25.8296C25.3165 25.8937 25.2461 25.9577 25.182 26.0282C25.0795 26.1243 24.977 26.2268 24.8745 26.3293C24.772 26.4318 24.6695 26.5343 24.567 26.6368C24.4645 26.7393 24.362 26.8482 24.2595 26.9571C24.157 27.066 24.0609 27.1813 23.9584 27.2966C23.7983 27.4696 23.6317 27.6169 23.4523 27.745C23.2794 27.8732 23.0936 27.9757 22.895 28.0589C22.6964 28.1422 22.4914 28.2063 22.2736 28.2447C22.0558 28.2832 21.8188 28.3088 21.5753 28.3088C21.5497 28.3088 21.5305 28.3088 21.5049 28.3088C21.4792 28.3088 21.4536 28.3088 21.4344 28.3088C21.4088 28.3088 21.3831 28.3088 21.3639 28.3088C21.3383 28.3088 21.3127 28.3088 21.2935 28.3024C20.8258 28.2703 20.3646 28.2063 19.9161 28.1102C19.4677 28.0141 19.0321 27.8924 18.6157 27.7514C18.1993 27.6105 17.7957 27.4568 17.4177 27.2966C17.0398 27.1365 16.6874 26.9763 16.3607 26.8161C15.4639 26.3805 14.599 25.9001 13.7534 25.3812C12.9142 24.8559 12.1006 24.2921 11.3191 23.6771C10.5375 23.0685 9.78802 22.4087 9.07053 21.7169C8.35304 21.0186 7.66758 20.2819 7.01415 19.5003C6.47604 18.8469 5.97636 18.2127 5.52793 17.5785C5.07309 16.9443 4.6631 16.3229 4.28513 15.6951C3.90717 15.0673 3.57405 14.4459 3.26655 13.8181C2.96547 13.1903 2.69641 12.5561 2.45297 11.909C2.30563 11.5119 2.18392 11.1403 2.08142 10.788C1.97892 10.4356 1.90205 10.0961 1.84439 9.76938C1.78673 9.44267 1.7483 9.13517 1.73549 8.82768C1.71627 8.52659 1.72267 8.2319 1.7483 7.94363C1.76111 7.75785 1.79314 7.57848 1.83798 7.41192C1.88283 7.23895 1.94048 7.0788 2.01095 6.92505C2.08142 6.7713 2.1711 6.61755 2.2736 6.47662C2.3761 6.33568 2.49141 6.19475 2.62594 6.06663L3.16406 5.52851L3.70217 4.99039L4.24029 4.45228L4.77841 3.91416C4.85528 3.84369 4.93215 3.77963 5.01543 3.72198C5.09231 3.66432 5.17559 3.61948 5.25887 3.58104C5.34215 3.5426 5.41902 3.51698 5.5023 3.49776C5.58558 3.47854 5.66246 3.46573 5.74574 3.46573C5.84823 3.46573 5.93792 3.47854 6.02761 3.50417C6.11729 3.52979 6.20057 3.56823 6.27745 3.60666C6.35432 3.65151 6.42479 3.69635 6.49525 3.7476C6.55932 3.79885 6.61697 3.8501 6.66822 3.90135L6.67463 3.90775L6.68103 3.91416L6.68744 3.92057L6.69385 3.92697C6.78994 4.01666 6.88603 4.10634 6.98212 4.20244C7.07821 4.29212 7.1679 4.38821 7.26399 4.48431C7.36009 4.5804 7.44977 4.67649 7.54586 4.77258C7.64196 4.86868 7.73805 4.96477 7.83414 5.06727C7.88539 5.11852 7.93023 5.16976 7.98148 5.22101C8.03273 5.27226 8.08398 5.32351 8.12882 5.37476C8.18007 5.42601 8.23132 5.47726 8.28257 5.52851C8.33382 5.57976 8.38507 5.63101 8.43632 5.68226L8.86553 6.11147L9.29474 6.54068L9.72395 6.96989L10.1532 7.39911C10.3197 7.56567 10.4478 7.73222 10.5311 7.89238C10.6144 8.05253 10.6593 8.21909 10.6593 8.37925C10.6593 8.5394 10.6144 8.69955 10.5311 8.86611C10.4478 9.02627 10.3197 9.19283 10.1532 9.35939C10.1083 9.40423 10.0635 9.44907 10.0186 9.49392C9.97379 9.53876 9.92895 9.5836 9.88411 9.62845C9.83926 9.67329 9.79442 9.71813 9.74958 9.76297C9.70474 9.80782 9.65989 9.85266 9.61505 9.8975C9.48052 10.032 9.3524 10.1666 9.21787 10.3011C9.08334 10.4356 8.95522 10.5637 8.82709 10.6919C8.69897 10.82 8.56444 10.9481 8.42991 11.0698C8.29538 11.198 8.16085 11.3197 8.02632 11.4414L8.01992 11.4478L8.01351 11.4542L8.00711 11.4606L8.0007 11.467C7.86617 11.6015 7.77008 11.7361 7.70602 11.8706C7.64196 12.0051 7.60352 12.1333 7.59071 12.255C7.57789 12.3767 7.5843 12.4984 7.59711 12.6073C7.61633 12.7162 7.64196 12.8187 7.66758 12.9084L7.67399 12.9212L7.68039 12.934L7.6868 12.9468L7.6932 12.9596C7.80852 13.2287 7.93023 13.4978 8.06476 13.7668C8.19929 14.0359 8.35304 14.3049 8.5196 14.574C8.68616 14.8495 8.87194 15.1249 9.07053 15.4068C9.26912 15.6887 9.49333 15.9833 9.73036 16.2908C10.166 16.829 10.608 17.335 11.0628 17.8155C11.5113 18.296 11.9725 18.7444 12.4402 19.1736C12.9078 19.5964 13.3819 19.9936 13.8687 20.3652C14.3556 20.7367 14.8489 21.0826 15.3614 21.403C15.4254 21.4414 15.4895 21.4862 15.56 21.5183C15.624 21.5567 15.6881 21.5887 15.7585 21.6272C15.8226 21.6592 15.8867 21.6976 15.9507 21.7297C16.0148 21.7617 16.0789 21.7937 16.1429 21.8258C16.2006 21.8514 16.2582 21.8834 16.3095 21.909C16.3671 21.9347 16.4184 21.9667 16.4696 21.9923C16.5209 22.0179 16.5721 22.05 16.6234 22.0756C16.6746 22.1012 16.7195 22.1333 16.7643 22.1589C16.7707 22.1589 16.7771 22.1653 16.7835 22.1717C16.7899 22.1781 16.7963 22.1781 16.8027 22.1845C16.8092 22.1909 16.8156 22.1909 16.822 22.1973C16.8284 22.2037 16.8348 22.2037 16.8412 22.2101C16.8924 22.2358 16.9501 22.2614 17.0013 22.2806C17.0526 22.2998 17.1038 22.319 17.1551 22.3318C17.2063 22.3447 17.2576 22.3575 17.3088 22.3639C17.3601 22.3703 17.4113 22.3703 17.4626 22.3703C17.5971 22.3703 17.7124 22.3511 17.8213 22.319C17.9302 22.287 18.0199 22.2422 18.1032 22.1909C18.1865 22.1461 18.2505 22.0948 18.3082 22.0436C18.3594 21.9987 18.4043 21.9539 18.4299 21.9283L18.968 21.3901L19.5061 20.852L20.0443 20.3139L20.5824 19.7758C20.6336 19.7245 20.6977 19.6669 20.7682 19.6092C20.8386 19.5516 20.9091 19.5003 20.9924 19.4555C21.0757 19.4106 21.1589 19.3722 21.255 19.3402C21.3447 19.3145 21.4408 19.2953 21.5433 19.2953C21.6394 19.2953 21.7355 19.3081 21.8252 19.3402C21.9149 19.3658 21.9981 19.4042 22.075 19.4491C22.1519 19.4939 22.2224 19.5452 22.2864 19.5964C22.3505 19.6477 22.4081 19.7053 22.4594 19.7566L23.337 20.6342L24.2147 21.5119L25.0923 22.3895L25.9699 23.2671C26.1301 23.4273 26.2582 23.5939 26.3351 23.754C26.4184 23.9206 26.4568 24.0807 26.4568 24.2473C26.4568 24.4138 26.4184 24.5804 26.3351 24.747C26.2326 24.9135 26.1109 25.0801 25.9507 25.2466Z" fill="#BF9474"/>
<path d="M16.1874 7.13645C16.6038 7.20692 17.0074 7.30942 17.3982 7.43754C17.789 7.57207 18.1733 7.73223 18.5385 7.92441C18.9036 8.11659 19.256 8.3344 19.5955 8.58424C19.935 8.83408 20.2489 9.10314 20.55 9.40423C20.8511 9.70532 21.1266 10.0256 21.37 10.3587C21.6135 10.6919 21.8377 11.0506 22.0234 11.4158C22.2156 11.7809 22.3758 12.1653 22.5103 12.5561C22.6448 12.9468 22.7473 13.3568 22.8178 13.7668C22.837 13.8693 22.8691 13.9654 22.9203 14.0551C22.9716 14.1384 23.0356 14.2153 23.1125 14.2793C23.1894 14.3434 23.2726 14.3882 23.3687 14.4267C23.4584 14.4587 23.5609 14.4779 23.6634 14.4779C23.6762 14.4779 23.689 14.4779 23.7019 14.4779C23.7147 14.4779 23.7275 14.4779 23.7403 14.4779C23.7531 14.4779 23.7659 14.4779 23.7787 14.4715C23.7915 14.4715 23.8044 14.4715 23.8172 14.4651C23.9325 14.4459 24.0414 14.401 24.1375 14.3434C24.2336 14.2857 24.3104 14.2088 24.3745 14.1192C24.4386 14.0295 24.4834 13.927 24.509 13.8181C24.5347 13.7092 24.5411 13.5939 24.5218 13.4785C24.4386 12.9789 24.3104 12.4856 24.1503 12.0115C23.9901 11.5375 23.7915 11.0698 23.5609 10.6278C23.3303 10.1858 23.0677 9.75657 22.7666 9.34658C22.4655 8.94299 22.1388 8.55221 21.7736 8.19347C21.4085 7.82832 21.0241 7.5016 20.6205 7.20052C20.2169 6.89943 19.7877 6.63677 19.3393 6.40615C18.8972 6.17553 18.4296 5.97694 17.9555 5.81679C17.4815 5.65663 16.9882 5.53492 16.4885 5.44523C16.3732 5.42601 16.2579 5.43242 16.149 5.45804C16.0401 5.48367 15.9376 5.52851 15.8479 5.59257C15.7582 5.65663 15.6814 5.73351 15.6237 5.8296C15.566 5.91928 15.5212 6.02819 15.502 6.1435C15.4828 6.25881 15.4828 6.37412 15.5084 6.48303C15.534 6.59193 15.5789 6.69443 15.6365 6.78412C15.7006 6.8738 15.7774 6.95068 15.8735 7.01474C15.9696 7.0788 16.0721 7.11724 16.1874 7.13645Z" fill="#BF9474"/>
<path d="M29.9416 13.2351C29.8006 12.4087 29.5956 11.6015 29.333 10.82C29.0703 10.0384 28.75 9.27611 28.3657 8.54581C27.9877 7.81551 27.5521 7.11083 27.0588 6.43818C26.5655 5.76554 26.021 5.13133 25.4252 4.53556C24.8295 3.93979 24.1889 3.38886 23.5226 2.90199C22.85 2.40872 22.1517 1.9731 21.415 1.59513C20.6783 1.21717 19.9224 0.890457 19.1408 0.627805C18.3593 0.365153 17.5521 0.160156 16.7257 0.0192209C16.6104 2.48291e-06 16.4951 2.48291e-06 16.3862 0.0256271C16.2773 0.0512517 16.1812 0.0960947 16.0915 0.160156C16.0018 0.224218 15.9249 0.301092 15.8673 0.397184C15.8096 0.493276 15.7648 0.595775 15.7455 0.711085C15.7263 0.826396 15.7327 0.941707 15.7584 1.05061C15.784 1.15952 15.8288 1.26201 15.8929 1.3517C15.957 1.44139 16.0338 1.51826 16.1299 1.57592C16.226 1.63357 16.3285 1.67841 16.4502 1.69763C17.1869 1.82576 17.9108 2.00513 18.6091 2.23575C19.3074 2.47278 19.9864 2.76105 20.6463 3.10058C21.2997 3.44011 21.9275 3.83088 22.5297 4.2665C23.1318 4.70852 23.6956 5.19539 24.2337 5.7271C24.7718 6.26522 25.2587 6.82896 25.6943 7.43114C26.1363 8.03332 26.5271 8.66112 26.8602 9.31455C27.1997 9.96797 27.488 10.647 27.7186 11.3517C27.9557 12.05 28.135 12.7739 28.2568 13.5106C28.276 13.6131 28.308 13.7092 28.3593 13.7989C28.4105 13.8821 28.4746 13.959 28.5514 14.0231C28.6283 14.0871 28.7116 14.132 28.8077 14.1704C28.8974 14.2024 28.9999 14.2217 29.1024 14.2217C29.1152 14.2217 29.128 14.2217 29.1408 14.2217C29.1536 14.2217 29.1664 14.2217 29.1792 14.2217C29.1921 14.2217 29.2049 14.2217 29.2177 14.2153C29.2305 14.2153 29.2433 14.2153 29.2561 14.2088C29.3714 14.1896 29.4803 14.1512 29.57 14.0935C29.6661 14.0359 29.743 13.959 29.807 13.8693C29.8711 13.7796 29.9159 13.6771 29.9416 13.5746C29.9544 13.4593 29.9608 13.3504 29.9416 13.2351Z" fill="#BF9474"/>
</svg>
