<svg width="143" height="35" viewBox="0 0 143 35" fill="none" xmlns="http://www.w3.org/2000/svg">
<g opacity="0.646205">
<path opacity="0.646205" d="M9.75502 34.0425C6.95889 34.0425 2.79622 33.2601 0.304926 31.8099C0.777957 30.7457 1.66095 29.9737 2.92236 30.6414C5.17188 31.8203 7.43192 32.342 9.94423 32.342C13.5498 32.342 16.1672 30.3284 15.9885 26.6769C15.6206 19.04 -0.0419626 17.882 8.45065e-05 8.71147C0.0421316 1.93009 6.10743 0 11.931 0C14.7376 0 17.4917 0.552943 20.2037 1.65883C19.7412 2.76472 18.9528 3.67238 17.5653 3.01511C15.6311 2.10744 13.718 1.6797 11.6787 1.6797C8.13621 1.6797 6.11794 3.59935 6.10743 6.46839C6.06539 13.7714 21.9907 14.8669 22.2535 24.3921C22.4533 31.2674 16.6928 34.0425 9.75502 34.0425Z" fill="white"/>
<path opacity="0.646205" d="M106.841 19.7586L116.309 19.0433C116.34 15.8245 116.215 10.523 112.059 10.5124C107.622 10.5124 106.966 16.3399 106.841 19.7586ZM112.111 34.0433C108.924 34.0433 105.612 33.0965 103.54 30.4773C101.592 28.0264 100.863 24.9759 100.821 21.8939C100.759 18.044 101.727 14.9514 103.727 12.6373C105.716 10.3126 108.456 9.16602 111.945 9.16602C113.622 9.16602 115.09 9.40795 116.361 9.91286C117.631 10.4072 118.652 11.091 119.412 11.9851C120.183 12.8687 120.766 13.889 121.152 15.0251C121.537 16.1611 121.745 17.4234 121.766 18.8013C121.777 19.5166 121.725 20.1898 121.589 20.7999C121.579 20.863 121.527 20.9051 121.464 20.9051H106.872C106.966 24.7445 107.539 27.532 108.612 29.2677C109.685 31.0033 111.476 31.8658 113.986 31.8658C116.611 31.8658 118.642 31.1085 120.621 29.5201C120.954 29.8146 121.308 30.6246 120.631 31.2663C118.829 32.9282 115.246 34.0433 112.111 34.0433Z" fill="white"/>
<path opacity="0.646205" d="M120.458 32.7329L129.323 21.7696L120.795 9.16602H125.416C127.691 9.16602 127.354 10.1108 131.302 15.9558L132.659 17.9699L138.024 9.48785C138.188 9.22831 138.453 9.16602 138.698 9.16602H141.462L133.413 19.1223L142.717 32.7329H138.381C135.515 32.7744 136.025 31.539 132.21 25.9951L130.098 22.9116L123.988 32.3799C123.835 32.6187 123.58 32.7225 123.253 32.7225H120.458V32.7329Z" fill="white"/>
<path opacity="0.646205" d="M70.7038 3.27335C70.7038 5.07931 69.2364 6.54664 67.4304 6.54664C65.6245 6.54664 64.1571 5.07931 64.1571 3.27335C64.1571 1.4674 65.6245 6.46843e-05 67.4304 6.46843e-05C69.2364 -0.0112225 70.7038 1.45611 70.7038 3.27335Z" fill="white"/>
<path opacity="0.646205" d="M64.1571 9.16602L64.405 11.855V30.0241L64.1571 32.7339H70.7038L70.4671 30.0241V12.3534C70.4671 10.5365 70.1066 9.1764 68.191 9.1764H64.1571V9.16602Z" fill="white"/>
<path opacity="0.646205" d="M96.6499 30.0927V16.5818C96.6499 11.9698 94.8528 9.16602 90.2659 9.16602C87.006 9.16602 83.9445 10.6593 81.7504 12.9348C81.7504 11.1469 81.4473 9.66379 79.6815 9.66379H75.941L76.1708 12.2949L76.1604 30.0724L75.941 32.7238H82.0116L81.7921 30.0724V14.2148C83.5266 12.9247 85.1566 12.2339 87.497 12.2339C90.4435 12.2339 91.0286 14.9259 91.0286 17.9329V29.6152C91.0286 31.5758 91.4988 32.7339 93.1497 32.7339H96.8902L96.6499 30.0927Z" fill="white"/>
<path opacity="0.646205" d="M58.6974 30.0724V16.5818C58.6974 11.919 56.9487 9.16602 52.5216 9.16602C48.7717 9.16602 46.2447 11.0961 44.2333 13.2701C43.4955 10.6796 41.757 9.16602 38.3608 9.16602C35.187 9.16602 32.5893 10.6898 30.497 12.9653V12.9348C30.497 11.1469 30.214 9.66379 28.4957 9.66379H24.8772L25.0895 12.2949V30.0724L24.8772 32.7339H30.7598L30.5375 30.0825V14.2148C32.1648 12.8129 34.1459 12.2339 35.7429 12.2339C38.8257 12.2339 39.1593 15.4847 39.1593 17.9329V30.0825L38.947 32.7339H44.8196L44.5972 30.0825V14.2148C46.0123 12.9653 47.9833 12.2339 49.833 12.2339C53.0472 12.2339 53.2493 15.7793 53.2493 17.9329V29.6152C53.2493 31.8196 53.8659 32.7339 55.3012 32.7339H58.9197L58.6974 30.0724Z" fill="white"/>
</g>
</svg>
